<mxfile host="app.diagrams.net" modified="2023-08-28T23:01:07.576Z" agent="Mozilla/5.0 (X11; Linux x86_64; rv:109.0) Gecko/20100101 Firefox/116.0" etag="4bCEewXivI-Jmvdw_gmg" version="21.6.9" type="device">
  <diagram id="C5RBs43oDa-KdzZeNtuy" name="Page-1">
    <mxGraphModel dx="540" dy="718" grid="1" gridSize="10" guides="1" tooltips="1" connect="1" arrows="1" fold="1" page="1" pageScale="1" pageWidth="827" pageHeight="1169" math="0" shadow="0">
      <root>
        <mxCell id="WIyWlLk6GJQsqaUBKTNV-0" />
        <mxCell id="WIyWlLk6GJQsqaUBKTNV-1" parent="WIyWlLk6GJQsqaUBKTNV-0" />
        <mxCell id="cYLumqOIlLCMqukBHhYg-1" value="&lt;b&gt;Tanque&lt;/b&gt;" style="swimlane;fontStyle=0;childLayout=stackLayout;horizontal=1;startSize=26;fillColor=none;horizontalStack=0;resizeParent=1;resizeParentMax=0;resizeLast=0;collapsible=1;marginBottom=0;whiteSpace=wrap;html=1;" vertex="1" parent="WIyWlLk6GJQsqaUBKTNV-1">
          <mxGeometry x="280" y="342" width="140" height="150" as="geometry" />
        </mxCell>
        <mxCell id="cYLumqOIlLCMqukBHhYg-2" value="&lt;div&gt;- torreta : Torreta&lt;/div&gt;&lt;div&gt;- energia : int&lt;br&gt;&lt;/div&gt;&lt;div&gt;- deshabilitado : boolean&lt;br&gt;&lt;/div&gt;&lt;div&gt;&lt;br&gt;&lt;/div&gt;" style="text;strokeColor=none;fillColor=none;align=left;verticalAlign=top;spacingLeft=4;spacingRight=4;overflow=hidden;rotatable=0;points=[[0,0.5],[1,0.5]];portConstraint=eastwest;whiteSpace=wrap;html=1;" vertex="1" parent="cYLumqOIlLCMqukBHhYg-1">
          <mxGeometry y="26" width="140" height="54" as="geometry" />
        </mxCell>
        <mxCell id="cYLumqOIlLCMqukBHhYg-4" value="&lt;div&gt;+ disparar()&lt;/div&gt;&lt;div&gt;+ moverse()&lt;/div&gt;&lt;div&gt;+ deshabilitar()&lt;br&gt;&lt;/div&gt;&lt;div&gt;+ habilitar()&lt;br&gt;&lt;/div&gt;" style="text;strokeColor=default;fillColor=none;align=left;verticalAlign=top;spacingLeft=4;spacingRight=4;overflow=hidden;rotatable=0;points=[[0,0.5],[1,0.5]];portConstraint=eastwest;whiteSpace=wrap;html=1;" vertex="1" parent="cYLumqOIlLCMqukBHhYg-1">
          <mxGeometry y="80" width="140" height="70" as="geometry" />
        </mxCell>
        <mxCell id="cYLumqOIlLCMqukBHhYg-5" value="&lt;div&gt;&lt;b&gt;Escuadron&lt;/b&gt;&lt;/div&gt;" style="swimlane;fontStyle=0;childLayout=stackLayout;horizontal=1;startSize=26;fillColor=none;horizontalStack=0;resizeParent=1;resizeParentMax=0;resizeLast=0;collapsible=1;marginBottom=0;whiteSpace=wrap;html=1;" vertex="1" parent="WIyWlLk6GJQsqaUBKTNV-1">
          <mxGeometry x="210" y="160" width="140" height="104" as="geometry" />
        </mxCell>
        <mxCell id="cYLumqOIlLCMqukBHhYg-6" value="-tanques : Lista&amp;lt;Tanque&amp;gt;" style="text;strokeColor=none;fillColor=none;align=left;verticalAlign=top;spacingLeft=4;spacingRight=4;overflow=hidden;rotatable=0;points=[[0,0.5],[1,0.5]];portConstraint=eastwest;whiteSpace=wrap;html=1;" vertex="1" parent="cYLumqOIlLCMqukBHhYg-5">
          <mxGeometry y="26" width="140" height="26" as="geometry" />
        </mxCell>
        <mxCell id="cYLumqOIlLCMqukBHhYg-7" value="-angulo : int" style="text;strokeColor=none;fillColor=none;align=left;verticalAlign=top;spacingLeft=4;spacingRight=4;overflow=hidden;rotatable=0;points=[[0,0.5],[1,0.5]];portConstraint=eastwest;whiteSpace=wrap;html=1;" vertex="1" parent="cYLumqOIlLCMqukBHhYg-5">
          <mxGeometry y="52" width="140" height="26" as="geometry" />
        </mxCell>
        <mxCell id="cYLumqOIlLCMqukBHhYg-8" value="&lt;div&gt;+ circular()&lt;/div&gt;&lt;div&gt;&lt;br&gt;&lt;/div&gt;" style="text;strokeColor=default;fillColor=none;align=left;verticalAlign=top;spacingLeft=4;spacingRight=4;overflow=hidden;rotatable=0;points=[[0,0.5],[1,0.5]];portConstraint=eastwest;whiteSpace=wrap;html=1;" vertex="1" parent="cYLumqOIlLCMqukBHhYg-5">
          <mxGeometry y="78" width="140" height="26" as="geometry" />
        </mxCell>
        <mxCell id="cYLumqOIlLCMqukBHhYg-17" value="Radar" style="swimlane;fontStyle=1;align=center;verticalAlign=top;childLayout=stackLayout;horizontal=1;startSize=26;horizontalStack=0;resizeParent=1;resizeParentMax=0;resizeLast=0;collapsible=1;marginBottom=0;whiteSpace=wrap;html=1;" vertex="1" parent="WIyWlLk6GJQsqaUBKTNV-1">
          <mxGeometry x="480" y="520" width="160" height="120" as="geometry" />
        </mxCell>
        <mxCell id="cYLumqOIlLCMqukBHhYg-18" value="- angulo : int" style="text;strokeColor=none;fillColor=none;align=left;verticalAlign=top;spacingLeft=4;spacingRight=4;overflow=hidden;rotatable=0;points=[[0,0.5],[1,0.5]];portConstraint=eastwest;whiteSpace=wrap;html=1;" vertex="1" parent="cYLumqOIlLCMqukBHhYg-17">
          <mxGeometry y="26" width="160" height="26" as="geometry" />
        </mxCell>
        <mxCell id="cYLumqOIlLCMqukBHhYg-19" value="" style="line;strokeWidth=1;fillColor=none;align=left;verticalAlign=middle;spacingTop=-1;spacingLeft=3;spacingRight=3;rotatable=0;labelPosition=right;points=[];portConstraint=eastwest;strokeColor=inherit;" vertex="1" parent="cYLumqOIlLCMqukBHhYg-17">
          <mxGeometry y="52" width="160" height="8" as="geometry" />
        </mxCell>
        <mxCell id="cYLumqOIlLCMqukBHhYg-20" value="&lt;div&gt;+ visualizar()&lt;/div&gt;&lt;div&gt;+ setAngulo()&lt;/div&gt;&lt;div&gt;+ getAngulo()&lt;br&gt;&lt;/div&gt;" style="text;strokeColor=none;fillColor=none;align=left;verticalAlign=top;spacingLeft=4;spacingRight=4;overflow=hidden;rotatable=0;points=[[0,0.5],[1,0.5]];portConstraint=eastwest;whiteSpace=wrap;html=1;" vertex="1" parent="cYLumqOIlLCMqukBHhYg-17">
          <mxGeometry y="60" width="160" height="60" as="geometry" />
        </mxCell>
        <mxCell id="cYLumqOIlLCMqukBHhYg-28" value="&lt;b&gt;Bala&lt;/b&gt;" style="swimlane;fontStyle=0;childLayout=stackLayout;horizontal=1;startSize=26;fillColor=none;horizontalStack=0;resizeParent=1;resizeParentMax=0;resizeLast=0;collapsible=1;marginBottom=0;whiteSpace=wrap;html=1;" vertex="1" parent="WIyWlLk6GJQsqaUBKTNV-1">
          <mxGeometry x="440" y="690" width="140" height="100" as="geometry" />
        </mxCell>
        <mxCell id="cYLumqOIlLCMqukBHhYg-29" value="- calibre : int" style="text;strokeColor=none;fillColor=none;align=left;verticalAlign=top;spacingLeft=4;spacingRight=4;overflow=hidden;rotatable=0;points=[[0,0.5],[1,0.5]];portConstraint=eastwest;whiteSpace=wrap;html=1;" vertex="1" parent="cYLumqOIlLCMqukBHhYg-28">
          <mxGeometry y="26" width="140" height="26" as="geometry" />
        </mxCell>
        <mxCell id="cYLumqOIlLCMqukBHhYg-32" value="&lt;div&gt;+ getCalibre()&lt;/div&gt;&lt;div&gt;+ setCalibre()&lt;br&gt;&lt;/div&gt;" style="text;strokeColor=default;fillColor=none;align=left;verticalAlign=top;spacingLeft=4;spacingRight=4;overflow=hidden;rotatable=0;points=[[0,0.5],[1,0.5]];portConstraint=eastwest;whiteSpace=wrap;html=1;" vertex="1" parent="cYLumqOIlLCMqukBHhYg-28">
          <mxGeometry y="52" width="140" height="48" as="geometry" />
        </mxCell>
        <mxCell id="cYLumqOIlLCMqukBHhYg-33" value="Campo" style="swimlane;fontStyle=1;align=center;verticalAlign=top;childLayout=stackLayout;horizontal=1;startSize=26;horizontalStack=0;resizeParent=1;resizeParentMax=0;resizeLast=0;collapsible=1;marginBottom=0;whiteSpace=wrap;html=1;" vertex="1" parent="WIyWlLk6GJQsqaUBKTNV-1">
          <mxGeometry x="430" y="140" width="160" height="100" as="geometry" />
        </mxCell>
        <mxCell id="cYLumqOIlLCMqukBHhYg-34" value="&lt;div&gt;+ alto : int&lt;/div&gt;&lt;div&gt;+ ancho : int&lt;br&gt;&lt;/div&gt;&lt;div&gt;+ escuadron : Escuadron&lt;/div&gt;&lt;div&gt;+ jugador : Tanque&lt;br&gt;&lt;/div&gt;" style="text;strokeColor=none;fillColor=none;align=left;verticalAlign=top;spacingLeft=4;spacingRight=4;overflow=hidden;rotatable=0;points=[[0,0.5],[1,0.5]];portConstraint=eastwest;whiteSpace=wrap;html=1;" vertex="1" parent="cYLumqOIlLCMqukBHhYg-33">
          <mxGeometry y="26" width="160" height="74" as="geometry" />
        </mxCell>
        <mxCell id="cYLumqOIlLCMqukBHhYg-38" value="Torreta" style="swimlane;fontStyle=1;align=center;verticalAlign=top;childLayout=stackLayout;horizontal=1;startSize=26;horizontalStack=0;resizeParent=1;resizeParentMax=0;resizeLast=0;collapsible=1;marginBottom=0;whiteSpace=wrap;html=1;" vertex="1" parent="WIyWlLk6GJQsqaUBKTNV-1">
          <mxGeometry x="170" y="572" width="160" height="170" as="geometry" />
        </mxCell>
        <mxCell id="cYLumqOIlLCMqukBHhYg-39" value="&lt;div&gt;- radar : Radar&lt;/div&gt;&lt;div&gt;- balas : Lista&amp;lt;Bala&amp;gt;&lt;/div&gt;&lt;div&gt;- temperatura : float&lt;br&gt;&lt;/div&gt;" style="text;strokeColor=none;fillColor=none;align=left;verticalAlign=top;spacingLeft=4;spacingRight=4;overflow=hidden;rotatable=0;points=[[0,0.5],[1,0.5]];portConstraint=eastwest;whiteSpace=wrap;html=1;" vertex="1" parent="cYLumqOIlLCMqukBHhYg-38">
          <mxGeometry y="26" width="160" height="54" as="geometry" />
        </mxCell>
        <mxCell id="cYLumqOIlLCMqukBHhYg-40" value="" style="line;strokeWidth=1;fillColor=none;align=left;verticalAlign=middle;spacingTop=-1;spacingLeft=3;spacingRight=3;rotatable=0;labelPosition=right;points=[];portConstraint=eastwest;strokeColor=inherit;" vertex="1" parent="cYLumqOIlLCMqukBHhYg-38">
          <mxGeometry y="80" width="160" height="8" as="geometry" />
        </mxCell>
        <mxCell id="cYLumqOIlLCMqukBHhYg-41" value="&lt;div&gt;+ girar()&lt;/div&gt;&lt;div&gt;+ deshabilitar()&lt;/div&gt;&lt;div&gt;+ habilitar()&lt;br&gt;&lt;/div&gt;&lt;div&gt;+ calentar()&lt;br&gt;&lt;/div&gt;&lt;div&gt;+ enfriar()&lt;br&gt;&lt;/div&gt;" style="text;strokeColor=none;fillColor=none;align=left;verticalAlign=top;spacingLeft=4;spacingRight=4;overflow=hidden;rotatable=0;points=[[0,0.5],[1,0.5]];portConstraint=eastwest;whiteSpace=wrap;html=1;" vertex="1" parent="cYLumqOIlLCMqukBHhYg-38">
          <mxGeometry y="88" width="160" height="82" as="geometry" />
        </mxCell>
        <mxCell id="cYLumqOIlLCMqukBHhYg-49" value="" style="text;strokeColor=default;fillColor=none;align=left;verticalAlign=top;spacingLeft=4;spacingRight=4;overflow=hidden;rotatable=0;points=[[0,0.5],[1,0.5]];portConstraint=eastwest;whiteSpace=wrap;html=1;" vertex="1" parent="WIyWlLk6GJQsqaUBKTNV-1">
          <mxGeometry x="430" y="240" width="160" height="30" as="geometry" />
        </mxCell>
        <mxCell id="cYLumqOIlLCMqukBHhYg-55" value="" style="endArrow=diamondThin;endFill=1;endSize=24;html=1;rounded=0;entryX=1.023;entryY=0.652;entryDx=0;entryDy=0;entryPerimeter=0;exitX=-0.02;exitY=0.127;exitDx=0;exitDy=0;exitPerimeter=0;" edge="1" parent="WIyWlLk6GJQsqaUBKTNV-1" source="cYLumqOIlLCMqukBHhYg-20" target="cYLumqOIlLCMqukBHhYg-39">
          <mxGeometry width="160" relative="1" as="geometry">
            <mxPoint x="330" y="579.6" as="sourcePoint" />
            <mxPoint x="480" y="580" as="targetPoint" />
          </mxGeometry>
        </mxCell>
        <mxCell id="cYLumqOIlLCMqukBHhYg-56" value="" style="endArrow=diamondThin;endFill=1;endSize=24;html=1;rounded=0;entryX=0.189;entryY=1.017;entryDx=0;entryDy=0;entryPerimeter=0;" edge="1" parent="WIyWlLk6GJQsqaUBKTNV-1" target="cYLumqOIlLCMqukBHhYg-4">
          <mxGeometry width="160" relative="1" as="geometry">
            <mxPoint x="280" y="570" as="sourcePoint" />
            <mxPoint x="280" y="570" as="targetPoint" />
          </mxGeometry>
        </mxCell>
        <mxCell id="cYLumqOIlLCMqukBHhYg-57" value="" style="endArrow=diamondThin;endFill=1;endSize=24;html=1;rounded=0;entryX=1;entryY=0.5;entryDx=0;entryDy=0;exitX=0;exitY=0.25;exitDx=0;exitDy=0;" edge="1" parent="WIyWlLk6GJQsqaUBKTNV-1" source="cYLumqOIlLCMqukBHhYg-28" target="cYLumqOIlLCMqukBHhYg-41">
          <mxGeometry width="160" relative="1" as="geometry">
            <mxPoint x="430" y="710" as="sourcePoint" />
            <mxPoint x="480" y="440" as="targetPoint" />
          </mxGeometry>
        </mxCell>
        <mxCell id="cYLumqOIlLCMqukBHhYg-58" value="" style="endArrow=diamondThin;endFill=0;endSize=24;html=1;rounded=0;entryX=0.637;entryY=1.108;entryDx=0;entryDy=0;entryPerimeter=0;exitX=0.337;exitY=0;exitDx=0;exitDy=0;exitPerimeter=0;" edge="1" parent="WIyWlLk6GJQsqaUBKTNV-1" source="cYLumqOIlLCMqukBHhYg-1" target="cYLumqOIlLCMqukBHhYg-8">
          <mxGeometry width="160" relative="1" as="geometry">
            <mxPoint x="320" y="440" as="sourcePoint" />
            <mxPoint x="480" y="440" as="targetPoint" />
          </mxGeometry>
        </mxCell>
        <mxCell id="cYLumqOIlLCMqukBHhYg-59" value="" style="endArrow=diamondThin;endFill=0;endSize=24;html=1;rounded=0;entryX=0.323;entryY=0.947;entryDx=0;entryDy=0;entryPerimeter=0;exitX=1;exitY=0;exitDx=0;exitDy=0;" edge="1" parent="WIyWlLk6GJQsqaUBKTNV-1" source="cYLumqOIlLCMqukBHhYg-1" target="cYLumqOIlLCMqukBHhYg-49">
          <mxGeometry width="160" relative="1" as="geometry">
            <mxPoint x="320" y="440" as="sourcePoint" />
            <mxPoint x="480" y="440" as="targetPoint" />
          </mxGeometry>
        </mxCell>
        <mxCell id="cYLumqOIlLCMqukBHhYg-61" value="" style="endArrow=diamondThin;endFill=1;endSize=24;html=1;rounded=0;entryX=0;entryY=0.5;entryDx=0;entryDy=0;exitX=1.031;exitY=0.8;exitDx=0;exitDy=0;exitPerimeter=0;" edge="1" parent="WIyWlLk6GJQsqaUBKTNV-1" source="cYLumqOIlLCMqukBHhYg-6" target="cYLumqOIlLCMqukBHhYg-34">
          <mxGeometry width="160" relative="1" as="geometry">
            <mxPoint x="320" y="440" as="sourcePoint" />
            <mxPoint x="480" y="440" as="targetPoint" />
          </mxGeometry>
        </mxCell>
      </root>
    </mxGraphModel>
  </diagram>
</mxfile>
